<mxfile host="app.diagrams.net" agent="Mozilla/5.0 (Windows NT 10.0; Win64; x64) AppleWebKit/537.36 (KHTML, like Gecko) Chrome/134.0.0.0 Safari/537.36" version="26.1.1">
  <diagram id="l8hXMBHkgcEJcSW0mbfh" name="Page-1">
    <mxGraphModel dx="2562" dy="720" grid="1" gridSize="10" guides="1" tooltips="1" connect="1" arrows="1" fold="1" page="1" pageScale="1" pageWidth="1169" pageHeight="827" math="0" shadow="0">
      <root>
        <mxCell id="0" />
        <mxCell id="1" parent="0" />
        <mxCell id="DWvMe9mJSsTApc19GM_0-9" style="edgeStyle=orthogonalEdgeStyle;rounded=0;orthogonalLoop=1;jettySize=auto;html=1;exitX=0;exitY=0.5;exitDx=0;exitDy=0;exitPerimeter=0;" edge="1" parent="1" source="DWvMe9mJSsTApc19GM_0-2" target="DWvMe9mJSsTApc19GM_0-6">
          <mxGeometry relative="1" as="geometry" />
        </mxCell>
        <mxCell id="8--HhbSZYtI3ddgJnD71-24" style="edgeStyle=none;rounded=0;orthogonalLoop=1;jettySize=auto;html=1;sourcePerimeterSpacing=5;endArrow=none;endFill=0;targetPerimeterSpacing=5;exitX=1;exitY=0.5;exitDx=0;exitDy=0;exitPerimeter=0;" parent="1" source="DWvMe9mJSsTApc19GM_0-53" target="8--HhbSZYtI3ddgJnD71-12" edge="1">
          <mxGeometry relative="1" as="geometry">
            <mxPoint x="-7" y="223.24190476190472" as="sourcePoint" />
          </mxGeometry>
        </mxCell>
        <mxCell id="8--HhbSZYtI3ddgJnD71-21" style="edgeStyle=none;rounded=0;orthogonalLoop=1;jettySize=auto;html=1;sourcePerimeterSpacing=5;endArrow=none;endFill=0;targetPerimeterSpacing=5;" parent="1" source="8--HhbSZYtI3ddgJnD71-12" target="8--HhbSZYtI3ddgJnD71-11" edge="1">
          <mxGeometry relative="1" as="geometry" />
        </mxCell>
        <mxCell id="8--HhbSZYtI3ddgJnD71-23" style="edgeStyle=none;rounded=0;orthogonalLoop=1;jettySize=auto;html=1;sourcePerimeterSpacing=5;endArrow=none;endFill=0;targetPerimeterSpacing=5;" parent="1" source="DWvMe9mJSsTApc19GM_0-47" target="8--HhbSZYtI3ddgJnD71-12" edge="1">
          <mxGeometry relative="1" as="geometry">
            <mxPoint x="83.69135802469123" y="93" as="sourcePoint" />
          </mxGeometry>
        </mxCell>
        <mxCell id="8--HhbSZYtI3ddgJnD71-20" style="rounded=0;orthogonalLoop=1;jettySize=auto;html=1;endArrow=none;endFill=0;sourcePerimeterSpacing=5;targetPerimeterSpacing=5;exitX=0.046;exitY=0.981;exitDx=0;exitDy=0;exitPerimeter=0;" parent="1" source="DWvMe9mJSsTApc19GM_0-50" target="8--HhbSZYtI3ddgJnD71-12" edge="1">
          <mxGeometry relative="1" as="geometry">
            <mxPoint x="231.46913580246905" y="93" as="sourcePoint" />
          </mxGeometry>
        </mxCell>
        <mxCell id="8--HhbSZYtI3ddgJnD71-22" style="edgeStyle=none;rounded=0;orthogonalLoop=1;jettySize=auto;html=1;sourcePerimeterSpacing=5;endArrow=none;endFill=0;targetPerimeterSpacing=5;" parent="1" source="DWvMe9mJSsTApc19GM_0-49" target="8--HhbSZYtI3ddgJnD71-12" edge="1">
          <mxGeometry relative="1" as="geometry">
            <mxPoint x="157.58024691358014" y="93" as="sourcePoint" />
          </mxGeometry>
        </mxCell>
        <mxCell id="8--HhbSZYtI3ddgJnD71-11" value="Internet" style="shape=image;verticalLabelPosition=bottom;verticalAlign=top;imageAspect=0;aspect=fixed;image=data:image/svg+xml,PHN2ZyB4bWxucz0iaHR0cDovL3d3dy53My5vcmcvMjAwMC9zdmciIHZlcnNpb249IjEiIHZpZXdCb3g9IjAgMCA0OCA0OCIgZW5hYmxlLWJhY2tncm91bmQ9Im5ldyAwIDAgNDggNDgiPiYjeGE7ICAgIDxwYXRoIGZpbGw9IiM3Q0IzNDIiIGQ9Ik0yNCw0QzEzLDQsNCwxMyw0LDI0czksMjAsMjAsMjBzMjAtOSwyMC0yMFMzNSw0LDI0LDR6Ii8+JiN4YTsgICAgPHBhdGggZmlsbD0iIzAyNzdCRCIgZD0iTTQ1LDI0YzAsMTEuNy05LjUsMjEtMjEsMjFTMywzNS43LDMsMjRTMTIuMywzLDI0LDNTNDUsMTIuMyw0NSwyNHogTTIzLjgsMzMuN2MwLTAuNC0wLjItMC42LTAuNi0wLjggYy0xLjMtMC40LTIuNS0wLjQtMy42LTEuNWMtMC4yLTAuNC0wLjItMC44LTAuNC0xLjNjLTAuNC0wLjQtMS41LTAuNi0yLjEtMC44Yy0wLjgsMC0xLjcsMC0yLjcsMGMtMC40LDAtMS4xLDAtMS41LDAgYy0wLjYtMC4yLTEuMS0xLjEtMS41LTEuN2MwLTAuMiwwLTAuNi0wLjQtMC42Yy0wLjQtMC4yLTAuOCwwLjItMS4zLDBjLTAuMi0wLjItMC4yLTAuNC0wLjItMC42YzAtMC42LDAuNC0xLjMsMC44LTEuNyBjMC42LTAuNCwxLjMsMC4yLDEuOSwwLjJjMC4yLDAsMC4yLDAsMC40LDAuMmMwLjYsMC4yLDAuOCwxLDAuOCwxLjdjMCwwLjIsMCwwLjQsMCwwLjRjMCwwLjIsMC4yLDAuMiwwLjQsMC4yIGMwLjItMS4xLDAuMi0yLjEsMC40LTMuMmMwLTEuMywxLjMtMi41LDIuMy0yLjljMC40LTAuMiwwLjYsMC4yLDEuMSwwYzEuMy0wLjQsNC40LTEuNywzLjgtMy40Yy0wLjQtMS41LTEuNy0yLjktMy40LTIuNyBjLTAuNCwwLjItMC42LDAuNC0xLDAuNmMtMC42LDAuNC0xLjksMS43LTIuNSwxLjdjLTEuMS0wLjItMS4xLTEuNy0wLjgtMi4zYzAuMi0wLjgsMi4xLTMuNiwzLjQtMy4xYzAuMiwwLjIsMC42LDAuNiwwLjgsMC44IGMwLjQsMC4yLDEuMSwwLjIsMS43LDAuMmMwLjIsMCwwLjQsMCwwLjYtMC4yYzAuMi0wLjIsMC4yLTAuMiwwLjItMC40YzAtMC42LTAuNi0xLjMtMS0xLjdjLTAuNC0wLjQtMS4xLTAuOC0xLjctMS4xIGMtMi4xLTAuNi01LjUsMC4yLTcuMSwxLjdzLTIuOSw0LTMuOCw2LjFjLTAuNCwxLjMtMC44LDIuOS0xLDQuNGMtMC4yLDEtMC40LDEuOSwwLjIsMi45YzAuNiwxLjMsMS45LDIuNSwzLjIsMy40IGMwLjgsMC42LDIuNSwwLjYsMy40LDEuN2MwLjYsMC44LDAuNCwxLjksMC40LDIuOWMwLDEuMywwLjgsMi4zLDEuMywzLjRjMC4yLDAuNiwwLjQsMS41LDAuNiwyLjFjMCwwLjIsMC4yLDEuNSwwLjIsMS43IGMxLjMsMC42LDIuMywxLjMsMy44LDEuN2MwLjIsMCwxLTEuMywxLTEuNWMwLjYtMC42LDEuMS0xLjUsMS43LTEuOWMwLjQtMC4yLDAuOC0wLjQsMS4zLTAuOGMwLjQtMC40LDAuNi0xLjMsMC44LTEuOSBDMjMuOCwzNS4xLDI0LDM0LjMsMjMuOCwzMy43eiBNMjQuMiwxNC4zYzAuMiwwLDAuNC0wLjIsMC44LTAuNGMwLjYtMC40LDEuMy0xLjEsMS45LTEuNWMwLjYtMC40LDEuMy0xLjEsMS43LTEuNSBjMC42LTAuNCwxLjEtMS4zLDEuMy0xLjljMC4yLTAuNCwwLjgtMS4zLDAuNi0xLjljLTAuMi0wLjQtMS4zLTAuNi0xLjctMC44Yy0xLjctMC40LTMuMS0wLjYtNC44LTAuNmMtMC42LDAtMS41LDAuMi0xLjcsMC44IGMtMC4yLDEuMSwwLjYsMC44LDEuNSwxLjFjMCwwLDAuMiwxLjcsMC4yLDEuOWMwLjIsMS0wLjQsMS43LTAuNCwyLjdjMCwwLjYsMCwxLjcsMC40LDIuMUwyNC4yLDE0LjN6IE00MS44LDI5IGMwLjItMC40LDAuMi0xLjEsMC40LTEuNWMwLjItMSwwLjItMi4xLDAuMi0zLjFjMC0yLjEtMC4yLTQuMi0wLjgtNi4xYy0wLjQtMC42LTAuNi0xLjMtMC44LTEuOWMtMC40LTEuMS0xLTIuMS0xLjktMi45IGMtMC44LTEuMS0xLjktNC0zLjgtMy4xYy0wLjYsMC4yLTEsMS0xLjUsMS41Yy0wLjQsMC42LTAuOCwxLjMtMS4zLDEuOWMtMC4yLDAuMi0wLjQsMC42LTAuMiwwLjhjMCwwLjIsMC4yLDAuMiwwLjQsMC4yIGMwLjQsMC4yLDAuNiwwLjIsMSwwLjRjMC4yLDAsMC40LDAuMiwwLjIsMC40YzAsMCwwLDAuMi0wLjIsMC4yYy0xLDEuMS0yLjEsMS45LTMuMSwyLjljLTAuMiwwLjItMC40LDAuNi0wLjQsMC44IGMwLDAuMiwwLjIsMC4yLDAuMiwwLjRjMCwwLjItMC4yLDAuMi0wLjQsMC40Yy0wLjQsMC4yLTAuOCwwLjQtMS4xLDAuNmMtMC4yLDAuNCwwLDEuMS0wLjIsMS41Yy0wLjIsMS4xLTAuOCwxLjktMS4zLDIuOSBjLTAuNCwwLjYtMC42LDEuMy0xLDEuOWMwLDAuOC0wLjIsMS41LDAuMiwyLjFjMSwxLjUsMi45LDAuNiw0LjQsMS4zYzAuNCwwLjIsMC44LDAuMiwxLjEsMC42YzAuNiwwLjYsMC42LDEuNywwLjgsMi4zIGMwLjIsMC44LDAuNCwxLjcsMC44LDIuNWMwLjIsMSwwLjYsMi4xLDAuOCwyLjljMS45LTEuNSwzLjYtMy4xLDQuOC01LjJDNDAuNiwzMi40LDQxLjIsMzAuNyw0MS44LDI5eiIvPiYjeGE7PC9zdmc+;labelBackgroundColor=#ffffff;" parent="1" vertex="1">
          <mxGeometry x="340" y="202" width="48" height="48" as="geometry" />
        </mxCell>
        <mxCell id="8--HhbSZYtI3ddgJnD71-12" value="VPN (IPsec/L2TP)" style="shape=image;verticalLabelPosition=bottom;verticalAlign=top;imageAspect=0;aspect=fixed;image=data:image/svg+xml,PHN2ZyB4bWxucz0iaHR0cDovL3d3dy53My5vcmcvMjAwMC9zdmciIHZlcnNpb249IjEiIHZpZXdCb3g9IjAgMCA0OCA0OCIgZW5hYmxlLWJhY2tncm91bmQ9Im5ldyAwIDAgNDggNDgiPiYjeGE7ICAgIDxwYXRoIGZpbGw9IiM0MjQyNDIiIGQ9Ik0yNCw0Yy01LjUsMC0xMCw0LjUtMTAsMTB2NGg0di00YzAtMy4zLDIuNy02LDYtNnM2LDIuNyw2LDZ2NGg0di00QzM0LDguNSwyOS41LDQsMjQsNHoiLz4mI3hhOyAgICA8cGF0aCBmaWxsPSIjRkI4QzAwIiBkPSJNMzYsNDRIMTJjLTIuMiwwLTQtMS44LTQtNFYyMmMwLTIuMiwxLjgtNCw0LTRoMjRjMi4yLDAsNCwxLjgsNCw0djE4QzQwLDQyLjIsMzguMiw0NCwzNiw0NHoiLz4mI3hhOyAgICA8Y2lyY2xlIGZpbGw9IiNDNzZFMDAiIGN4PSIyNCIgY3k9IjMxIiByPSIzIi8+JiN4YTs8L3N2Zz4=;labelBackgroundColor=#ffffff;" parent="1" vertex="1">
          <mxGeometry x="150" y="202" width="48" height="48" as="geometry" />
        </mxCell>
        <mxCell id="DWvMe9mJSsTApc19GM_0-2" value="PC (SCADA/FEKO)&lt;div&gt;&lt;br&gt;&lt;/div&gt;" style="fontColor=#0066CC;verticalAlign=top;verticalLabelPosition=bottom;labelPosition=center;align=center;html=1;outlineConnect=0;fillColor=#CCCCCC;strokeColor=#6881B3;gradientColor=none;gradientDirection=north;strokeWidth=2;shape=mxgraph.networks.pc;" vertex="1" parent="1">
          <mxGeometry x="740" y="191" width="100" height="70" as="geometry" />
        </mxCell>
        <mxCell id="DWvMe9mJSsTApc19GM_0-16" style="edgeStyle=orthogonalEdgeStyle;rounded=0;orthogonalLoop=1;jettySize=auto;html=1;" edge="1" parent="1" source="DWvMe9mJSsTApc19GM_0-6" target="DWvMe9mJSsTApc19GM_0-33">
          <mxGeometry relative="1" as="geometry">
            <mxPoint x="644" y="312" as="targetPoint" />
          </mxGeometry>
        </mxCell>
        <mxCell id="DWvMe9mJSsTApc19GM_0-6" value="TRB140&lt;div&gt;&lt;br&gt;&lt;/div&gt;" style="image;points=[];aspect=fixed;html=1;align=center;shadow=0;dashed=0;image=img/lib/allied_telesis/security/Router_VPN.svg;" vertex="1" parent="1">
          <mxGeometry x="620" y="206.2" width="49.800000000000004" height="40.6" as="geometry" />
        </mxCell>
        <mxCell id="DWvMe9mJSsTApc19GM_0-8" style="edgeStyle=orthogonalEdgeStyle;rounded=0;orthogonalLoop=1;jettySize=auto;html=1;entryX=0;entryY=0.475;entryDx=0;entryDy=0;entryPerimeter=0;" edge="1" parent="1" source="8--HhbSZYtI3ddgJnD71-11" target="DWvMe9mJSsTApc19GM_0-6">
          <mxGeometry relative="1" as="geometry" />
        </mxCell>
        <mxCell id="DWvMe9mJSsTApc19GM_0-12" value="ZUSD (PLC)" style="image;aspect=fixed;html=1;points=[];align=center;fontSize=12;image=img/lib/azure2/other/Defender_PLC.svg;" vertex="1" parent="1">
          <mxGeometry x="239.99999999999997" y="480" width="68" height="68" as="geometry" />
        </mxCell>
        <mxCell id="DWvMe9mJSsTApc19GM_0-13" value="HMI" style="image;aspect=fixed;html=1;points=[];align=center;fontSize=12;image=img/lib/azure2/other/Defender_HMI.svg;" vertex="1" parent="1">
          <mxGeometry x="180" y="1000" width="68" height="52.88" as="geometry" />
        </mxCell>
        <mxCell id="DWvMe9mJSsTApc19GM_0-17" value="PSKZ (PLC)" style="image;aspect=fixed;html=1;points=[];align=center;fontSize=12;image=img/lib/azure2/other/Defender_PLC.svg;" vertex="1" parent="1">
          <mxGeometry x="370" y="480" width="68" height="68" as="geometry" />
        </mxCell>
        <mxCell id="DWvMe9mJSsTApc19GM_0-23" value="HMI" style="image;aspect=fixed;html=1;points=[];align=center;fontSize=12;image=img/lib/azure2/other/Defender_HMI.svg;" vertex="1" parent="1">
          <mxGeometry x="310" y="1000" width="68" height="52.88" as="geometry" />
        </mxCell>
        <mxCell id="DWvMe9mJSsTApc19GM_0-26" value="" style="fillColor=#ffffff;strokeColor=none;dashed=0;outlineConnect=0;html=1;labelPosition=center;verticalLabelPosition=bottom;verticalAlign=top;part=1;movable=0;resizable=0;rotatable=0;shape=mxgraph.ibm_cloud.vlan" vertex="1" parent="1">
          <mxGeometry x="432" y="322" width="24" height="24" as="geometry" />
        </mxCell>
        <mxCell id="DWvMe9mJSsTApc19GM_0-33" value="VLAN OT" style="shape=rect;fillColor=#1192E8;aspect=fixed;resizable=0;labelPosition=center;verticalLabelPosition=bottom;align=center;verticalAlign=top;strokeColor=none;fontSize=14;" vertex="1" parent="1">
          <mxGeometry x="620" y="330" width="48" height="48" as="geometry" />
        </mxCell>
        <mxCell id="DWvMe9mJSsTApc19GM_0-34" value="" style="fillColor=#ffffff;strokeColor=none;dashed=0;outlineConnect=0;html=1;labelPosition=center;verticalLabelPosition=bottom;verticalAlign=top;part=1;movable=0;resizable=0;rotatable=0;shape=mxgraph.ibm_cloud.vlan" vertex="1" parent="DWvMe9mJSsTApc19GM_0-33">
          <mxGeometry width="24" height="24" relative="1" as="geometry">
            <mxPoint x="12" y="12" as="offset" />
          </mxGeometry>
        </mxCell>
        <mxCell id="DWvMe9mJSsTApc19GM_0-38" value="BMPŚ (PLC)" style="image;aspect=fixed;html=1;points=[];align=center;fontSize=12;image=img/lib/azure2/other/Defender_PLC.svg;" vertex="1" parent="1">
          <mxGeometry x="493" y="480" width="68" height="68" as="geometry" />
        </mxCell>
        <mxCell id="DWvMe9mJSsTApc19GM_0-39" value="HMI" style="image;aspect=fixed;html=1;points=[];align=center;fontSize=12;image=img/lib/azure2/other/Defender_HMI.svg;" vertex="1" parent="1">
          <mxGeometry x="460" y="1000" width="68" height="52.88" as="geometry" />
        </mxCell>
        <mxCell id="DWvMe9mJSsTApc19GM_0-40" value="SCPN (PLC)" style="image;aspect=fixed;html=1;points=[];align=center;fontSize=12;image=img/lib/azure2/other/Defender_PLC.svg;" vertex="1" parent="1">
          <mxGeometry x="720" y="480" width="68" height="68" as="geometry" />
        </mxCell>
        <mxCell id="DWvMe9mJSsTApc19GM_0-41" value="HMI" style="image;aspect=fixed;html=1;points=[];align=center;fontSize=12;image=img/lib/azure2/other/Defender_HMI.svg;" vertex="1" parent="1">
          <mxGeometry x="595" y="1000" width="68" height="52.88" as="geometry" />
        </mxCell>
        <mxCell id="DWvMe9mJSsTApc19GM_0-42" value="KTSO (PLC)" style="image;aspect=fixed;html=1;points=[];align=center;fontSize=12;image=img/lib/azure2/other/Defender_PLC.svg;" vertex="1" parent="1">
          <mxGeometry x="842" y="480" width="68" height="68" as="geometry" />
        </mxCell>
        <mxCell id="DWvMe9mJSsTApc19GM_0-43" value="HMI" style="image;aspect=fixed;html=1;points=[];align=center;fontSize=12;image=img/lib/azure2/other/Defender_HMI.svg;" vertex="1" parent="1">
          <mxGeometry x="740" y="1000" width="68" height="52.88" as="geometry" />
        </mxCell>
        <mxCell id="DWvMe9mJSsTApc19GM_0-44" value="PD (PLC)" style="image;aspect=fixed;html=1;points=[];align=center;fontSize=12;image=img/lib/azure2/other/Defender_PLC.svg;" vertex="1" parent="1">
          <mxGeometry x="972" y="480" width="68" height="68" as="geometry" />
        </mxCell>
        <mxCell id="DWvMe9mJSsTApc19GM_0-45" value="HMI" style="image;aspect=fixed;html=1;points=[];align=center;fontSize=12;image=img/lib/azure2/other/Defender_HMI.svg;" vertex="1" parent="1">
          <mxGeometry x="880" y="1000" width="68" height="52.88" as="geometry" />
        </mxCell>
        <mxCell id="DWvMe9mJSsTApc19GM_0-47" value="WEBInterface (user 1)" style="image;aspect=fixed;html=1;points=[];align=center;fontSize=12;image=img/lib/azure2/general/Browser.svg;" vertex="1" parent="1">
          <mxGeometry x="-62.5" y="40" width="65" height="52" as="geometry" />
        </mxCell>
        <mxCell id="DWvMe9mJSsTApc19GM_0-49" value="WEBInterface (user 2)" style="image;aspect=fixed;html=1;points=[];align=center;fontSize=12;image=img/lib/azure2/general/Browser.svg;" vertex="1" parent="1">
          <mxGeometry x="141.5" y="40" width="65" height="52" as="geometry" />
        </mxCell>
        <mxCell id="DWvMe9mJSsTApc19GM_0-50" value="WEBInterface (user3)" style="image;aspect=fixed;html=1;points=[];align=center;fontSize=12;image=img/lib/azure2/general/Browser.svg;" vertex="1" parent="1">
          <mxGeometry x="320" y="40" width="65" height="52" as="geometry" />
        </mxCell>
        <mxCell id="DWvMe9mJSsTApc19GM_0-53" value="PC" style="fontColor=#0066CC;verticalAlign=top;verticalLabelPosition=bottom;labelPosition=center;align=center;html=1;outlineConnect=0;fillColor=#CCCCCC;strokeColor=#6881B3;gradientColor=none;gradientDirection=north;strokeWidth=2;shape=mxgraph.networks.pc;" vertex="1" parent="1">
          <mxGeometry x="-80" y="191" width="100" height="70" as="geometry" />
        </mxCell>
        <mxCell id="DWvMe9mJSsTApc19GM_0-54" value="SZSD (PLC)" style="image;aspect=fixed;html=1;points=[];align=center;fontSize=12;image=img/lib/azure2/other/Defender_PLC.svg;" vertex="1" parent="1">
          <mxGeometry x="180" y="1090" width="68" height="68" as="geometry" />
        </mxCell>
        <mxCell id="DWvMe9mJSsTApc19GM_0-55" value="BK (PLC)" style="image;aspect=fixed;html=1;points=[];align=center;fontSize=12;image=img/lib/azure2/other/Defender_PLC.svg;" vertex="1" parent="1">
          <mxGeometry x="310" y="1090" width="68" height="68" as="geometry" />
        </mxCell>
        <mxCell id="DWvMe9mJSsTApc19GM_0-62" value="ZE1" style="verticalLabelPosition=bottom;align=center;html=1;verticalAlign=top;pointerEvents=1;dashed=0;shape=mxgraph.pid2valves.valve;valveType=gate" vertex="1" parent="1">
          <mxGeometry x="466" y="1620" width="56" height="33" as="geometry" />
        </mxCell>
        <mxCell id="DWvMe9mJSsTApc19GM_0-66" value="&lt;font style=&quot;font-size: 25px;&quot;&gt;&lt;sup&gt;VLT1&lt;/sup&gt;&lt;/font&gt;" style="dashed=0;outlineConnect=0;align=center;html=1;shape=mxgraph.pid.engines.electric_motor_(ac);fontSize=45;" vertex="1" parent="1">
          <mxGeometry x="310" y="1210" width="63" height="63" as="geometry" />
        </mxCell>
        <mxCell id="DWvMe9mJSsTApc19GM_0-67" value="&lt;font style=&quot;font-size: 25px;&quot;&gt;&lt;sup&gt;VLT1&lt;/sup&gt;&lt;/font&gt;" style="dashed=0;outlineConnect=0;align=center;html=1;shape=mxgraph.pid.engines.electric_motor_(ac);fontSize=45;" vertex="1" parent="1">
          <mxGeometry x="462.5" y="1210" width="63" height="63" as="geometry" />
        </mxCell>
        <mxCell id="DWvMe9mJSsTApc19GM_0-68" value="&lt;font style=&quot;font-size: 25px;&quot;&gt;&lt;sup&gt;VLT1&lt;/sup&gt;&lt;/font&gt;" style="dashed=0;outlineConnect=0;align=center;html=1;shape=mxgraph.pid.engines.electric_motor_(ac);fontSize=45;" vertex="1" parent="1">
          <mxGeometry x="462.5" y="1290" width="63" height="63" as="geometry" />
        </mxCell>
        <mxCell id="DWvMe9mJSsTApc19GM_0-69" value="&lt;font style=&quot;font-size: 25px;&quot;&gt;&lt;sup&gt;VLT1&lt;/sup&gt;&lt;/font&gt;" style="dashed=0;outlineConnect=0;align=center;html=1;shape=mxgraph.pid.engines.electric_motor_(ac);fontSize=45;" vertex="1" parent="1">
          <mxGeometry x="462.5" y="1370" width="63" height="63" as="geometry" />
        </mxCell>
        <mxCell id="DWvMe9mJSsTApc19GM_0-70" value="&lt;font style=&quot;font-size: 25px;&quot;&gt;&lt;sup&gt;VLT1&lt;/sup&gt;&lt;/font&gt;" style="dashed=0;outlineConnect=0;align=center;html=1;shape=mxgraph.pid.engines.electric_motor_(ac);fontSize=45;" vertex="1" parent="1">
          <mxGeometry x="462.5" y="1450" width="63" height="63" as="geometry" />
        </mxCell>
        <mxCell id="DWvMe9mJSsTApc19GM_0-83" style="edgeStyle=orthogonalEdgeStyle;rounded=0;orthogonalLoop=1;jettySize=auto;html=1;" edge="1" parent="1" target="DWvMe9mJSsTApc19GM_0-74">
          <mxGeometry relative="1" as="geometry">
            <mxPoint x="330" y="520" as="sourcePoint" />
            <Array as="points">
              <mxPoint x="330" y="530" />
              <mxPoint x="330" y="617" />
            </Array>
          </mxGeometry>
        </mxCell>
        <mxCell id="DWvMe9mJSsTApc19GM_0-72" value="&lt;font style=&quot;font-size: 25px;&quot;&gt;&lt;sup&gt;VLT1&lt;/sup&gt;&lt;/font&gt;" style="dashed=0;outlineConnect=0;align=center;html=1;shape=mxgraph.pid.engines.electric_motor_(ac);fontSize=45;" vertex="1" parent="1">
          <mxGeometry x="462.5" y="1530" width="63" height="63" as="geometry" />
        </mxCell>
        <mxCell id="DWvMe9mJSsTApc19GM_0-74" value="HMI/PLC/VLT/ZE" style="sketch=0;pointerEvents=1;shadow=0;dashed=0;html=1;strokeColor=none;fillColor=#DF8C42;labelPosition=center;verticalLabelPosition=bottom;verticalAlign=top;align=center;outlineConnect=0;shape=mxgraph.veeam2.scale_out_backup_repository2;" vertex="1" parent="1">
          <mxGeometry x="257" y="600" width="34" height="34" as="geometry" />
        </mxCell>
        <mxCell id="DWvMe9mJSsTApc19GM_0-75" value="HMI/PLC/VLT/ZE" style="sketch=0;pointerEvents=1;shadow=0;dashed=0;html=1;strokeColor=none;fillColor=#DF8C42;labelPosition=center;verticalLabelPosition=bottom;verticalAlign=top;align=center;outlineConnect=0;shape=mxgraph.veeam2.scale_out_backup_repository2;" vertex="1" parent="1">
          <mxGeometry x="387" y="600" width="34" height="34" as="geometry" />
        </mxCell>
        <mxCell id="DWvMe9mJSsTApc19GM_0-77" value="HMI/PLC/VLT/ZE" style="sketch=0;pointerEvents=1;shadow=0;dashed=0;html=1;strokeColor=none;fillColor=#DF8C42;labelPosition=center;verticalLabelPosition=bottom;verticalAlign=top;align=center;outlineConnect=0;shape=mxgraph.veeam2.scale_out_backup_repository2;" vertex="1" parent="1">
          <mxGeometry x="510" y="600" width="34" height="34" as="geometry" />
        </mxCell>
        <mxCell id="DWvMe9mJSsTApc19GM_0-78" value="HMI/PLC/VLT/ZE" style="sketch=0;pointerEvents=1;shadow=0;dashed=0;html=1;strokeColor=none;fillColor=#DF8C42;labelPosition=center;verticalLabelPosition=bottom;verticalAlign=top;align=center;outlineConnect=0;shape=mxgraph.veeam2.scale_out_backup_repository2;" vertex="1" parent="1">
          <mxGeometry x="737" y="600" width="34" height="34" as="geometry" />
        </mxCell>
        <mxCell id="DWvMe9mJSsTApc19GM_0-79" value="HMI/PLC/VLT/ZE" style="sketch=0;pointerEvents=1;shadow=0;dashed=0;html=1;strokeColor=none;fillColor=#DF8C42;labelPosition=center;verticalLabelPosition=bottom;verticalAlign=top;align=center;outlineConnect=0;shape=mxgraph.veeam2.scale_out_backup_repository2;" vertex="1" parent="1">
          <mxGeometry x="859" y="600" width="34" height="34" as="geometry" />
        </mxCell>
        <mxCell id="DWvMe9mJSsTApc19GM_0-80" value="HMI/PLC/VLT/ZE" style="sketch=0;pointerEvents=1;shadow=0;dashed=0;html=1;strokeColor=none;fillColor=#DF8C42;labelPosition=center;verticalLabelPosition=bottom;verticalAlign=top;align=center;outlineConnect=0;shape=mxgraph.veeam2.scale_out_backup_repository2;" vertex="1" parent="1">
          <mxGeometry x="989" y="600" width="34" height="34" as="geometry" />
        </mxCell>
        <mxCell id="DWvMe9mJSsTApc19GM_0-82" style="edgeStyle=orthogonalEdgeStyle;rounded=0;orthogonalLoop=1;jettySize=auto;html=1;entryX=0.994;entryY=0.721;entryDx=0;entryDy=0;entryPerimeter=0;" edge="1" parent="1" source="DWvMe9mJSsTApc19GM_0-34" target="DWvMe9mJSsTApc19GM_0-12">
          <mxGeometry relative="1" as="geometry">
            <mxPoint x="380" y="520" as="targetPoint" />
            <Array as="points">
              <mxPoint x="330" y="354" />
              <mxPoint x="330" y="529" />
            </Array>
          </mxGeometry>
        </mxCell>
        <mxCell id="DWvMe9mJSsTApc19GM_0-84" style="edgeStyle=orthogonalEdgeStyle;rounded=0;orthogonalLoop=1;jettySize=auto;html=1;entryX=1.009;entryY=0.662;entryDx=0;entryDy=0;entryPerimeter=0;" edge="1" parent="1" source="DWvMe9mJSsTApc19GM_0-34" target="DWvMe9mJSsTApc19GM_0-17">
          <mxGeometry relative="1" as="geometry">
            <Array as="points">
              <mxPoint x="460" y="354" />
              <mxPoint x="460" y="525" />
            </Array>
          </mxGeometry>
        </mxCell>
        <mxCell id="DWvMe9mJSsTApc19GM_0-88" style="edgeStyle=orthogonalEdgeStyle;rounded=0;orthogonalLoop=1;jettySize=auto;html=1;entryX=1;entryY=0.632;entryDx=0;entryDy=0;entryPerimeter=0;" edge="1" parent="1" source="DWvMe9mJSsTApc19GM_0-34" target="DWvMe9mJSsTApc19GM_0-38">
          <mxGeometry relative="1" as="geometry" />
        </mxCell>
        <mxCell id="DWvMe9mJSsTApc19GM_0-89" style="edgeStyle=orthogonalEdgeStyle;rounded=0;orthogonalLoop=1;jettySize=auto;html=1;entryX=-0.015;entryY=0.706;entryDx=0;entryDy=0;entryPerimeter=0;" edge="1" parent="1" source="DWvMe9mJSsTApc19GM_0-33" target="DWvMe9mJSsTApc19GM_0-40">
          <mxGeometry relative="1" as="geometry">
            <mxPoint x="700" y="514" as="targetPoint" />
          </mxGeometry>
        </mxCell>
        <mxCell id="DWvMe9mJSsTApc19GM_0-90" style="edgeStyle=orthogonalEdgeStyle;rounded=0;orthogonalLoop=1;jettySize=auto;html=1;entryX=-0.015;entryY=0.662;entryDx=0;entryDy=0;entryPerimeter=0;" edge="1" parent="1" source="DWvMe9mJSsTApc19GM_0-34" target="DWvMe9mJSsTApc19GM_0-42">
          <mxGeometry relative="1" as="geometry">
            <Array as="points">
              <mxPoint x="820" y="354" />
              <mxPoint x="820" y="525" />
            </Array>
          </mxGeometry>
        </mxCell>
        <mxCell id="DWvMe9mJSsTApc19GM_0-91" style="edgeStyle=orthogonalEdgeStyle;rounded=0;orthogonalLoop=1;jettySize=auto;html=1;entryX=0.015;entryY=0.662;entryDx=0;entryDy=0;entryPerimeter=0;" edge="1" parent="1" source="DWvMe9mJSsTApc19GM_0-34" target="DWvMe9mJSsTApc19GM_0-44">
          <mxGeometry relative="1" as="geometry">
            <Array as="points">
              <mxPoint x="950" y="354" />
              <mxPoint x="950" y="525" />
            </Array>
          </mxGeometry>
        </mxCell>
      </root>
    </mxGraphModel>
  </diagram>
</mxfile>
